<svg width="47" height="54" viewBox="0 0 47 54" fill="none" xmlns="http://www.w3.org/2000/svg">
<path d="M23.5 53.9778C21.8999 53.9778 20.2759 53.552 18.843 52.6754L4.65701 44.0848C1.79116 42.3316 0 39.1007 0 35.6194V18.4882C0 15.0068 1.79116 11.7759 4.65701 10.0227L18.843 1.43208C21.7088 -0.321111 25.2673 -0.321111 28.157 1.43208L42.343 10.0227C45.2088 11.7759 47 15.0068 47 18.4882V35.6194C47 39.1007 45.2088 42.3316 42.343 44.0848L28.157 52.6754C26.7241 53.552 25.1001 53.9778 23.5 53.9778ZM23.5 3.88655C22.5208 3.88655 21.5178 4.16206 20.6341 4.68801L6.44817 13.2787C4.68089 14.3556 3.58232 16.3342 3.58232 18.4882V35.6194C3.58232 37.7482 4.68089 39.7519 6.44817 40.8288L20.6341 49.4195C22.4014 50.4965 24.5986 50.4965 26.3659 49.4195L40.5518 40.8288C42.3191 39.7519 43.4177 37.7733 43.4177 35.6194V18.4882C43.4177 16.3593 42.3191 14.3556 40.5518 13.2787L26.3659 4.68801C25.4822 4.16206 24.4792 3.88655 23.5 3.88655Z" fill="white"/>
<path d="M23.5041 26.4262C19.4441 26.4262 16.1484 22.9699 16.1484 18.7121C16.1484 14.4543 19.4441 10.998 23.5041 10.998C27.564 10.998 30.8597 14.4543 30.8597 18.7121C30.8597 22.9699 27.564 26.4262 23.5041 26.4262ZM23.5041 14.7549C21.4263 14.7549 19.7307 16.5331 19.7307 18.7121C19.7307 20.8911 21.4263 22.6693 23.5041 22.6693C25.5818 22.6693 27.2774 20.8911 27.2774 18.7121C27.2774 16.5331 25.5818 14.7549 23.5041 14.7549ZM33.0521 40.597C32.073 40.597 31.261 39.7454 31.261 38.7185C31.261 35.2623 27.7742 32.4321 23.4993 32.4321C19.2244 32.4321 15.7376 35.2623 15.7376 38.7185C15.7376 39.7454 14.9256 40.597 13.9464 40.597C12.9673 40.597 12.1553 39.7454 12.1553 38.7185C12.1553 33.1835 17.2422 28.6752 23.4993 28.6752C29.7564 28.6752 34.8433 33.1835 34.8433 38.7185C34.8433 39.7454 34.0313 40.597 33.0521 40.597Z" fill="white"/>
</svg>
